<mxfile host="app.diagrams.net" agent="Mozilla/5.0 (Macintosh; Intel Mac OS X 10_15_7) AppleWebKit/537.36 (KHTML, like Gecko) Chrome/138.0.0.0 Safari/537.36" version="28.0.6">
  <diagram name="Page-1" id="nMK7wGiNTNxS1q2FWcUp">
    <mxGraphModel dx="1351" dy="920" grid="1" gridSize="10" guides="1" tooltips="1" connect="1" arrows="1" fold="1" page="1" pageScale="1" pageWidth="870" pageHeight="410" math="0" shadow="0">
      <root>
        <mxCell id="0" />
        <mxCell id="1" parent="0" />
        <mxCell id="sJuday59ZZZzxu0nJ7RU-22" value="" style="rounded=0;whiteSpace=wrap;html=1;strokeColor=none;" parent="1" vertex="1">
          <mxGeometry width="870" height="410" as="geometry" />
        </mxCell>
        <mxCell id="sJuday59ZZZzxu0nJ7RU-1" value="" style="rounded=1;whiteSpace=wrap;html=1;" parent="1" vertex="1">
          <mxGeometry x="140" y="90" width="580" height="230" as="geometry" />
        </mxCell>
        <mxCell id="sJuday59ZZZzxu0nJ7RU-2" value="" style="ellipse;whiteSpace=wrap;html=1;aspect=fixed;" parent="1" vertex="1">
          <mxGeometry x="110" y="177.5" width="55" height="55" as="geometry" />
        </mxCell>
        <mxCell id="sJuday59ZZZzxu0nJ7RU-3" value="" style="html=1;shadow=0;dashed=0;align=center;verticalAlign=middle;shape=mxgraph.arrows2.arrow;dy=0.6;dx=40;flipH=1;notch=0;" parent="1" vertex="1">
          <mxGeometry x="121" y="192.5" width="25" height="25" as="geometry" />
        </mxCell>
        <mxCell id="sJuday59ZZZzxu0nJ7RU-4" value="" style="ellipse;whiteSpace=wrap;html=1;aspect=fixed;movable=1;resizable=1;rotatable=1;deletable=1;editable=1;locked=0;connectable=1;" parent="1" vertex="1">
          <mxGeometry x="692" y="177.5" width="55" height="55" as="geometry" />
        </mxCell>
        <mxCell id="sJuday59ZZZzxu0nJ7RU-5" value="" style="html=1;shadow=0;dashed=0;align=center;verticalAlign=middle;shape=mxgraph.arrows2.arrow;dy=0.6;dx=40;flipH=1;notch=0;movable=1;resizable=1;rotatable=1;deletable=1;editable=1;locked=0;connectable=1;direction=west;" parent="1" vertex="1">
          <mxGeometry x="710" y="192.5" width="25" height="25" as="geometry" />
        </mxCell>
        <mxCell id="sJuday59ZZZzxu0nJ7RU-14" value="" style="group" parent="1" vertex="1" connectable="0">
          <mxGeometry x="360" y="330" width="140" height="20" as="geometry" />
        </mxCell>
        <mxCell id="sJuday59ZZZzxu0nJ7RU-6" value="" style="ellipse;whiteSpace=wrap;html=1;aspect=fixed;fillColor=#000000;" parent="sJuday59ZZZzxu0nJ7RU-14" vertex="1">
          <mxGeometry width="20" height="20" as="geometry" />
        </mxCell>
        <mxCell id="sJuday59ZZZzxu0nJ7RU-7" value="" style="ellipse;whiteSpace=wrap;html=1;aspect=fixed;" parent="sJuday59ZZZzxu0nJ7RU-14" vertex="1">
          <mxGeometry x="40" width="20" height="20" as="geometry" />
        </mxCell>
        <mxCell id="sJuday59ZZZzxu0nJ7RU-8" value="" style="ellipse;whiteSpace=wrap;html=1;aspect=fixed;" parent="sJuday59ZZZzxu0nJ7RU-14" vertex="1">
          <mxGeometry x="80" width="20" height="20" as="geometry" />
        </mxCell>
        <mxCell id="sJuday59ZZZzxu0nJ7RU-9" value="" style="ellipse;whiteSpace=wrap;html=1;aspect=fixed;" parent="sJuday59ZZZzxu0nJ7RU-14" vertex="1">
          <mxGeometry x="120" width="20" height="20" as="geometry" />
        </mxCell>
        <mxCell id="sJuday59ZZZzxu0nJ7RU-17" value="&lt;font style=&quot;font-size: 20px;&quot;&gt;Content area&lt;/font&gt;" style="text;html=1;align=center;verticalAlign=middle;whiteSpace=wrap;rounded=0;" parent="1" vertex="1">
          <mxGeometry x="370" y="202.5" width="120" height="30" as="geometry" />
        </mxCell>
        <mxCell id="sJuday59ZZZzxu0nJ7RU-18" value="&lt;font style=&quot;font-size: 20px;&quot;&gt;&quot;Prev&quot; button&lt;/font&gt;" style="text;html=1;align=center;verticalAlign=middle;whiteSpace=wrap;rounded=0;" parent="1" vertex="1">
          <mxGeometry x="20" y="190" width="100" height="30" as="geometry" />
        </mxCell>
        <mxCell id="sJuday59ZZZzxu0nJ7RU-19" value="&lt;font style=&quot;font-size: 20px;&quot;&gt;&quot;Next&quot; button&lt;/font&gt;" style="text;html=1;align=center;verticalAlign=middle;whiteSpace=wrap;rounded=0;" parent="1" vertex="1">
          <mxGeometry x="735" y="190" width="100" height="30" as="geometry" />
        </mxCell>
        <mxCell id="sJuday59ZZZzxu0nJ7RU-20" value="&lt;font style=&quot;font-size: 20px;&quot;&gt;Scroll markers&lt;/font&gt;" style="text;html=1;align=center;verticalAlign=middle;whiteSpace=wrap;rounded=0;" parent="1" vertex="1">
          <mxGeometry x="355" y="360" width="150" height="30" as="geometry" />
        </mxCell>
      </root>
    </mxGraphModel>
  </diagram>
</mxfile>
